<svg width="211" height="66" viewBox="0 0 211 66" fill="none" xmlns="http://www.w3.org/2000/svg">
<path d="M204.406 65.5H6.59375C2.96719 65.5 0 62.575 0 59V7C0 3.425 2.96719 0.5 6.59375 0.5H204.406C208.033 0.5 211 3.425 211 7V59C211 62.575 208.033 65.5 204.406 65.5Z" fill="black"/>
<path fill-rule="evenodd" clip-rule="evenodd" d="M16.1543 32.35V15.2875C16.1543 14.3125 16.9785 13.5 17.8027 13.5C18.627 13.5 18.9566 13.6625 19.4512 13.9875L51.266 31.2125C51.9254 31.5375 52.2551 32.025 52.2551 32.5125C52.2551 33 51.9254 33.4875 51.266 33.8125L19.4512 51.0375C19.1215 51.2 18.627 51.525 17.8027 51.525C16.9785 51.525 16.1543 50.7125 16.1543 49.7375V32.35Z" fill="url(#paint0_linear_868_24747)"/>
<path fill-rule="evenodd" clip-rule="evenodd" d="M36.7594 32.5125L17.4727 13.5C17.6375 13.5 17.6375 13.5 17.8023 13.5C18.6266 13.5 18.9562 13.6625 19.4508 13.9875L42.8586 26.6625L36.7594 32.5125Z" fill="url(#paint1_linear_868_24747)"/>
<path fill-rule="evenodd" clip-rule="evenodd" d="M42.6941 38.2004L36.7598 32.3504L42.859 26.3379L51.266 30.8879C51.9254 31.2129 52.2551 31.7004 52.2551 32.1879C52.2551 32.6754 51.9254 33.1629 51.266 33.4879L42.6941 38.2004Z" fill="url(#paint2_linear_868_24747)"/>
<path fill-rule="evenodd" clip-rule="evenodd" d="M17.6387 51.1996L36.7606 32.3496L42.6949 38.1996L19.452 50.7121C18.9574 51.0371 18.6277 51.1996 17.6387 51.1996C17.8035 51.1996 17.8035 51.1996 17.6387 51.1996Z" fill="url(#paint3_linear_868_24747)"/>
<path fill-rule="evenodd" clip-rule="evenodd" d="M117.203 55.5875C116.379 54.9375 115.72 53.8 115.39 53.15L118.028 52.0125C118.192 52.3375 118.522 52.825 118.852 53.3125C119.511 53.9625 120.5 54.6125 121.489 54.6125C122.478 54.6125 123.632 54.125 124.292 53.3125C124.786 52.5 125.116 51.6875 125.116 50.55V49.575C123.138 52.0125 119.017 51.6875 116.709 49.0875C114.236 46.4875 114.236 42.1 116.709 39.5C119.181 37.0625 122.808 36.7375 124.951 39.0125V37.875H127.753V50.0625C127.753 53.15 126.599 54.9375 125.116 56.075C124.127 56.8875 122.643 57.2125 121.324 57.2125C119.841 57.05 118.357 56.5625 117.203 55.5875ZM186.273 56.2375L189.075 49.7375L184.13 38.525H186.932L190.394 46.4875L193.856 38.525H196.658L189.075 56.2375H186.273ZM172.92 50.0625C172.096 49.25 171.767 48.1125 171.767 46.975C171.767 46 172.096 45.025 172.756 44.375C173.91 43.2375 175.558 42.75 177.371 42.75C178.525 42.75 179.514 42.9125 180.338 43.4C180.338 41.45 178.69 40.6375 177.371 40.6375C176.217 40.6375 175.063 41.2875 174.569 42.425L172.096 41.45C172.591 40.3125 173.91 38.2 177.206 38.2C178.855 38.2 180.503 38.6875 181.492 39.825C182.481 40.9625 182.811 42.2625 182.811 44.05V50.875H180.009V49.7375C179.679 50.225 179.02 50.55 178.525 50.875C177.866 51.2 177.042 51.3625 176.217 51.3625C175.228 51.2 173.745 50.875 172.92 50.0625ZM85.0588 44.2125C85.0588 40.9625 87.5315 37.3875 91.9823 37.3875C96.2682 37.3875 98.9057 40.9625 98.9057 44.2125C98.9057 47.4625 96.4331 51.0375 91.9823 51.0375C87.5315 51.0375 85.0588 47.4625 85.0588 44.2125ZM99.8948 44.2125C99.8948 40.9625 102.367 37.3875 106.818 37.3875C111.104 37.3875 113.742 40.9625 113.742 44.2125C113.742 47.4625 111.269 51.0375 106.818 51.0375C102.532 51.0375 99.8948 47.4625 99.8948 44.2125ZM66.4315 47.7875C62.3104 43.725 62.4753 37.0625 66.5963 32.8375C68.7393 30.725 71.3768 29.75 74.1792 29.75C76.8167 29.75 79.4541 30.725 81.4323 32.675L79.4542 34.7875C76.487 31.8625 71.7065 32.025 68.9042 34.95C65.937 38.0375 65.937 42.75 68.9042 45.8375C71.8714 48.925 76.8166 49.0875 79.7838 46C80.7729 45.025 81.1026 43.725 81.2674 42.425H74.344V39.5H84.0698C84.2346 40.15 84.2346 40.9625 84.2346 41.775C84.2346 44.2125 83.2456 46.65 81.5971 48.275C79.7838 50.0625 77.1463 51.0375 74.5088 51.0375C71.5417 50.875 68.5745 49.9 66.4315 47.7875ZM136.16 48.925C133.688 46.325 133.688 41.9375 136.16 39.175C138.633 36.575 142.754 36.575 145.062 39.175C145.886 39.9875 146.381 41.125 146.875 42.2625L137.809 46C138.303 47.1375 139.457 48.1125 141.106 48.1125C142.589 48.1125 143.578 47.625 144.567 46.1625L147.04 47.7875C146.71 48.1125 146.381 48.4375 146.216 48.7625C143.414 51.525 138.633 51.525 136.16 48.925ZM153.304 50.875V32.8375H159.238C162.7 32.8375 165.503 35.275 165.503 38.2C165.503 41.125 163.03 43.5625 159.898 43.5625H156.271V50.7125H153.304V50.875ZM167.151 50.875V32.8375H169.953V50.875H167.151ZM129.896 50.55V30.4H132.864V50.55H129.896ZM180.174 45.5125C179.514 45.025 178.525 44.8625 177.536 44.8625C175.558 44.8625 174.404 45.8375 174.404 46.975C174.404 48.1125 175.558 48.7625 176.712 48.7625C178.36 48.7625 180.174 47.4625 180.174 45.5125ZM95.7737 44.2125C95.7737 42.2625 94.4549 40.15 91.9823 40.15C89.5096 40.15 88.1909 42.2625 88.1909 44.2125C88.1909 46.1625 89.5096 48.275 91.9823 48.275C94.2901 48.275 95.7737 46.1625 95.7737 44.2125ZM110.61 44.2125C110.61 42.2625 109.291 40.15 106.818 40.15C104.346 40.15 103.027 42.2625 103.027 44.2125C103.027 46.1625 104.346 48.275 106.818 48.275C109.291 48.275 110.61 46.1625 110.61 44.2125ZM125.281 45.35C125.281 45.1875 125.281 45.025 125.446 44.8625C125.446 44.7 125.446 44.375 125.446 44.2125C125.446 44.05 125.446 43.725 125.446 43.5625V43.4C125.446 43.2375 125.281 42.9125 125.281 42.75C124.786 41.125 123.303 39.9875 121.819 39.9875C119.841 39.9875 118.192 41.9375 118.192 44.05C118.192 46.325 119.841 48.1125 121.984 48.1125C123.303 48.275 124.621 47.1375 125.281 45.35ZM137.314 43.8875L143.413 41.2875C142.754 40.15 141.765 39.825 140.941 39.825C138.468 39.9875 136.985 42.5875 137.314 43.8875ZM162.535 38.3625C162.535 36.7375 161.217 35.6 159.403 35.6H156.106V41.2875H159.568C161.217 41.2875 162.535 39.9875 162.535 38.3625Z" fill="white"/>
<path fill-rule="evenodd" clip-rule="evenodd" d="M188.415 52.9854H188.252V52.8242H188.415H188.252V52.9854H188.415Z" fill="white"/>
<path fill-rule="evenodd" clip-rule="evenodd" d="M188.746 52.9854C188.746 52.8242 188.746 52.8242 188.746 52.9854C188.582 52.8242 188.582 52.8242 188.746 52.9854C188.582 52.9854 188.582 52.9854 188.746 52.9854ZM188.746 52.8242C188.746 52.9854 188.746 52.9854 188.746 52.8242C188.746 52.9854 188.582 52.9854 188.746 52.8242C188.746 52.8242 188.582 52.8242 188.746 52.8242Z" fill="white"/>
<path fill-rule="evenodd" clip-rule="evenodd" d="M188.91 52.8242H188.746H188.91V52.9854V52.8242Z" fill="white"/>
<path d="M64.125 16.9117C64.125 13.9867 66.268 12.1992 68.9055 12.1992C70.7188 12.1992 71.8727 13.0117 72.6969 14.1492L71.3781 14.9617C70.8836 14.3117 70.0594 13.8242 68.9055 13.8242C67.0922 13.8242 65.7734 15.1242 65.7734 17.0742C65.7734 19.0242 67.0922 20.3242 68.9055 20.3242C69.8946 20.3242 70.7188 19.8367 71.0485 19.5117V18.0492H68.411V16.5867H72.8617V19.9992C72.0375 20.9742 70.7188 21.6242 69.0703 21.6242C66.268 21.6242 64.125 19.6742 64.125 16.9117Z" fill="white"/>
<path d="M74.8398 21.4633V12.3633H81.1039V13.8258H76.3234V16.1008H80.9391V17.5633H76.3234V20.1633H81.1039V21.6258L74.8398 21.4633Z" fill="white"/>
<path d="M85.7184 21.4633V13.8258H82.916V12.3633H90.1692V13.8258H87.3668V21.4633H85.7184Z" fill="white"/>
<path d="M95.7734 21.4633V12.3633H97.4219V21.4633H95.7734Z" fill="white"/>
<path d="M101.873 21.4633V13.8258H99.0703V12.3633H106.323V13.8258H103.521V21.4633H101.873Z" fill="white"/>
<path d="M111.6 16.9117C111.6 14.1492 113.578 12.1992 116.38 12.1992C119.182 12.1992 121.161 14.1492 121.161 16.9117C121.161 19.6742 119.182 21.6242 116.38 21.6242C113.578 21.6242 111.6 19.5117 111.6 16.9117ZM119.347 16.9117C119.347 14.9617 118.193 13.6617 116.215 13.6617C114.402 13.6617 113.083 15.1242 113.083 16.9117C113.083 18.8617 114.237 20.1617 116.215 20.1617C118.193 20.1617 119.347 18.6992 119.347 16.9117Z" fill="white"/>
<path d="M129.402 21.4633L124.621 14.9633V21.4633H122.973V12.3633H124.621L129.402 18.7008V12.3633H131.05V21.4633H129.402Z" fill="white"/>
<defs>
<linearGradient id="paint0_linear_868_24747" x1="26.8154" y1="11.1821" x2="35.7973" y2="48.6014" gradientUnits="userSpaceOnUse">
<stop stop-color="#006884"/>
<stop offset="1" stop-color="#8AD1D0"/>
</linearGradient>
<linearGradient id="paint1_linear_868_24747" x1="15.5616" y1="16.4962" x2="40.546" y2="30.1977" gradientUnits="userSpaceOnUse">
<stop stop-color="#24BBB6"/>
<stop offset="1" stop-color="#DBE692"/>
</linearGradient>
<linearGradient id="paint2_linear_868_24747" x1="44.4982" y1="38.8831" x2="44.4982" y2="25.9669" gradientUnits="userSpaceOnUse">
<stop stop-color="#FCC072"/>
<stop offset="1" stop-color="#F58A5B"/>
</linearGradient>
<linearGradient id="paint3_linear_868_24747" x1="20.4323" y1="54.5619" x2="40.0094" y2="34.3506" gradientUnits="userSpaceOnUse">
<stop stop-color="#712B8F"/>
<stop offset="1" stop-color="#EA1D27"/>
</linearGradient>
</defs>
</svg>
